<svg xmlns="http://www.w3.org/2000/svg" xmlns:xlink="http://www.w3.org/1999/xlink" version="1.1" x="0px" y="0px" viewBox="0 0 100 125" enable-background="new 0 0 100 100" xml:space="preserve"><g><path fill="#000000" d="M50.692,20.284c-16.57,0-30.051,13.482-30.051,30.054c0,16.57,13.481,30.05,30.051,30.05   c16.569,0,30.05-13.48,30.05-30.05C80.742,33.766,67.261,20.284,50.692,20.284z M50.692,77.984   c-15.245,0-27.647-12.402-27.647-27.646c0-15.246,12.402-27.65,27.647-27.65c15.244,0,27.646,12.403,27.646,27.65   C78.338,65.581,65.936,77.984,50.692,77.984z"/><path fill="#000000" d="M50.4,42.925c-1.193,0-2.21,0.423-3.049,1.272c-0.839,0.846-1.261,1.865-1.261,3.061v15.931   c0,1.19,0.421,2.208,1.261,3.045c0.839,0.843,1.857,1.262,3.049,1.262c1.193,0,2.213-0.419,3.062-1.262   c0.847-0.837,1.271-1.855,1.271-3.045V47.259c0-1.196-0.42-2.215-1.259-3.061C52.635,43.348,51.609,42.925,50.4,42.925z"/><path fill="#000000" d="M50.4,30.82c-1.193,0-2.21,0.423-3.049,1.272c-0.839,0.846-1.261,1.865-1.261,3.061   c0,1.19,0.421,2.208,1.261,3.045c0.839,0.843,1.857,1.262,3.049,1.262c1.193,0,2.213-0.419,3.062-1.262   c0.847-0.837,1.271-1.855,1.271-3.045c0-1.196-0.42-2.215-1.259-3.061C52.635,31.242,51.609,30.82,50.4,30.82z"/></g></svg>